# xmcd
#
# Track frame offsets:
#	150
#	15792
#	22327
#	38889
#	54097
#	64741
#	73239
#	84838
#	96132
#	104436
#	119781
#	132505
#	144764
#	154888
#	165714
#	175936
#	183842
#	192663
#	204649
#	215158
#	223352
#	231605
#	240658
#	255020
#	257587
#	263641
#	276546
#	288557
#	295984
#	302055
#
# Disc length: 4193 seconds
#
# Revision: 2
# Processed by: cddbd v1.5.1PL0 Copyright (c) Steve Scherf et al.
# Submitted via: audiograbber 1.82.01
#
DISCID=d1105f1e
DTITLE=DJ York - R&B Mix Vol.2
DYEAR=2004
DGENRE=
TTITLE0=Intro
TTITLE1=Fatman Scoop - Party Up
TTITLE2=Kelis - Trick Me
TTITLE3=Jamelia - Superstar
TTITLE4=Kevin Lyttle - Turn Me On
TTITLE5=Black Eyed Peas - Let's Get It Started
TTITLE6=Kelly Rowland - Can't Nobody
TTITLE7=DJ LBR - Pearl Jam
TTITLE8=LA The Darkman - What I Like
TTITLE9=Beyonce - Naughty Girl
TTITLE10=Lil John EastSide Boyz - Get Low
TTITLE11=Black Eyed Peas - Hey Mama
TTITLE12=Joi Campbell - Watch Me
TTITLE13=Ludacris - Stand Up
TTITLE14=Mario Winans - I Don't Wanna Know
TTITLE15=Fatman Scoop - Where U At
TTITLE16=Lil Flip Featuring Lea - Sunshine
TTITLE17=Nick Canno Featuring R.Kelly - Gigolo
TTITLE18=J. Kwon - Tipsy
TTITLE19=Cassidy Featuring R.Kelly - Hotel
TTITLE20=Christina Millian - Dip It Low
TTITLE21=Михей - Сука-Любовь
TTITLE22=Usher - Yeah
TTITLE23=Crooklyn Clan - Where The Ladys At
TTITLE24=Crooklyn Clan - Wanna Jump
TTITLE25=Houston Featuring Chingy, I-20 and Nate Dogg - I Like That
TTITLE26=Tony Sunshine Featuring P.Diddy - Oh My God
TTITLE27=Joe Featuring G-Unit - Ride With U
TTITLE28=Mis-Teeq Featuring Twista - Scandalous
TTITLE29=Fatman Scoop - All Night Long
EXTD=
EXTT0=
EXTT1=
EXTT2=
EXTT3=
EXTT4=
EXTT5=
EXTT6=
EXTT7=
EXTT8=
EXTT9=
EXTT10=
EXTT11=
EXTT12=
EXTT13=
EXTT14=
EXTT15=
EXTT16=
EXTT17=
EXTT18=
EXTT19=
EXTT20=
EXTT21=
EXTT22=
EXTT23=
EXTT24=
EXTT25=
EXTT26=
EXTT27=
EXTT28=
EXTT29=
PLAYORDER=
